<svg width="80" height="80" viewBox="0 0 80 80" fill="none" xmlns="http://www.w3.org/2000/svg">
<path d="M67.2409 22.5H61.0376L45.8176 37.7133C46.3418 39.0493 46.39 40.525 45.9541 41.8923C45.5182 43.2597 44.6248 44.4352 43.4241 45.2213C42.2234 46.0074 40.7886 46.356 39.3611 46.2087C37.9335 46.0613 36.6003 45.4269 35.5855 44.4121C34.5707 43.3973 33.9363 42.064 33.7889 40.6365C33.6415 39.2089 33.9902 37.7742 34.7763 36.5735C35.5623 35.3728 36.7379 34.4794 38.1052 34.0435C39.4725 33.6076 40.9483 33.6558 42.2842 34.18L57.5009 18.9633V12.76C57.5012 11.9299 57.8309 11.1339 58.4176 10.5466L64.1842 4.77998C64.2908 4.67226 64.4247 4.59575 64.5716 4.55873C64.7185 4.52171 64.8727 4.5256 65.0176 4.56998C65.3142 4.65665 65.5342 4.90331 65.5942 5.20665L67.1276 12.8766L74.7942 14.41C75.0942 14.47 75.3409 14.69 75.4276 14.9866C75.4713 15.1308 75.4752 15.284 75.4389 15.4302C75.4025 15.5763 75.3271 15.7099 75.2209 15.8166L69.4509 21.5833C69.1609 21.8739 68.8164 22.1044 68.4372 22.2617C68.0579 22.4189 67.6514 22.4999 67.2409 22.5Z" fill="#A8A8A8"/>
<path d="M8.75 40C8.75 48.288 12.0424 56.2366 17.9029 62.0971C23.7634 67.9576 31.712 71.25 40 71.25C44.1038 71.25 48.1674 70.4417 51.9589 68.8713C55.7503 67.3008 59.1953 64.9989 62.0971 62.0971C64.9989 59.1953 67.3008 55.7503 68.8712 51.9589C70.4417 48.1674 71.25 44.1038 71.25 40C71.25 37.0067 70.83 34.1134 70.0467 31.3767C69.891 30.7483 69.9851 30.0841 70.3092 29.5237C70.6333 28.9633 71.1622 28.5505 71.7845 28.3721C72.4068 28.1938 73.074 28.2638 73.6458 28.5674C74.2175 28.871 74.6492 29.3846 74.85 30C75.7633 33.18 76.25 36.5334 76.25 40C76.25 60.02 60.02 76.25 40 76.25C19.98 76.25 3.75 60.02 3.75 40C3.75 19.98 19.98 3.75002 40 3.75002C43.3833 3.74668 46.7467 4.21668 50 5.14668C50.3172 5.23567 50.6137 5.38647 50.8724 5.59042C51.1312 5.79437 51.347 6.04745 51.5076 6.33511C51.6682 6.62277 51.7704 6.93933 51.8082 7.2666C51.8461 7.59387 51.8189 7.9254 51.7281 8.24212C51.6374 8.55884 51.485 8.8545 51.2797 9.11212C51.0743 9.36973 50.82 9.58422 50.5315 9.74325C50.243 9.90227 49.9259 10.0027 49.5984 10.0388C49.2709 10.0748 48.9396 10.0458 48.6233 9.95335C45.819 9.15245 42.9165 8.74742 40 8.75002C31.712 8.75002 23.7634 12.0424 17.9029 17.9029C12.0424 23.7634 8.75 31.712 8.75 40Z" fill="#A8A8A8"/>
<path d="M23.7498 40C23.7591 42.2077 24.2183 44.3904 25.0993 46.4148C25.9803 48.4391 27.2647 50.2627 28.874 51.7741C30.4832 53.2855 32.3837 54.4531 34.4593 55.2055C36.5349 55.958 38.7421 56.2794 40.946 56.1504C43.15 56.0213 45.3046 55.4444 47.2782 54.4549C49.2518 53.4654 51.003 52.084 52.4249 50.395C53.8467 48.7061 54.9095 46.7451 55.5482 44.6318C56.1869 42.5184 56.3882 40.297 56.1398 38.1033C56.0698 37.659 56.1213 37.2041 56.2888 36.7867C56.4563 36.3692 56.7336 36.0049 57.0913 35.7323C57.4491 35.4596 57.8739 35.2888 58.3207 35.238C58.7676 35.1871 59.2199 35.258 59.6298 35.4433C60.4665 35.8166 61.0298 36.6133 61.1031 37.5266C61.6207 41.9108 60.7595 46.3473 58.6394 50.2194C56.5193 54.0916 53.2455 57.2071 49.273 59.1328C45.3006 61.0585 40.8269 61.6989 36.4738 60.9648C32.1206 60.2307 28.1043 58.1586 24.9831 55.0366C21.8628 51.9181 19.7902 47.9058 19.0529 43.5562C18.3155 39.2067 18.95 34.7355 20.8682 30.7628C22.7864 26.7901 25.8934 23.5127 29.7581 21.3853C33.6228 19.2578 38.0538 18.3857 42.4365 18.89C42.7678 18.9207 43.0896 19.0173 43.3831 19.174C43.6766 19.3308 43.9359 19.5445 44.1457 19.8028C44.3556 20.061 44.5117 20.3585 44.6051 20.6779C44.6984 20.9973 44.7271 21.3321 44.6894 21.6627C44.6517 21.9933 44.5483 22.313 44.3854 22.6032C44.2225 22.8933 44.0034 23.148 43.7408 23.3523C43.4781 23.5567 43.1774 23.7065 42.8561 23.7931C42.5348 23.8797 42.1995 23.9013 41.8698 23.8566C39.5932 23.5934 37.2867 23.8147 35.1017 24.5058C32.9166 25.1969 30.9024 26.3423 29.1913 27.8667C27.4801 29.3912 26.1107 31.2603 25.1729 33.3514C24.2351 35.4425 23.7501 37.7082 23.7498 40Z" fill="#A8A8A8"/>
</svg>
