<svg width="46" height="71" viewBox="0 0 46 71" fill="none" xmlns="http://www.w3.org/2000/svg">
<g clip-path="url(#clip0_2309_4837)">
<path d="M21.6071 0.140743C27.4845 -0.821447 33.5935 3.28652 35.1163 9.18615C36.788 14.7996 34.0306 21.3172 28.9025 23.9031C23.857 26.6798 17.0652 25.168 13.6088 20.4774C9.92691 15.8613 10.1545 8.58064 14.1164 4.21968C16.042 2.00913 18.739 0.526448 21.6071 0.140743Z" fill="white"/>
<path d="M36.1978 20.8216C41.0641 24.3634 44.4237 29.9728 45.3079 36.03C43.1991 35.7459 41.0923 35.4535 38.9834 35.1549C38.6712 32.8303 38.3751 30.5016 38.0629 28.177C35.6741 30.6135 33.3075 33.0709 30.9146 35.5033C27.0776 33.5685 22.5457 33.1123 18.4408 34.371C13.7538 35.7501 9.73953 39.2981 7.68305 43.8374C5.62456 48.2917 5.50774 53.648 7.40509 58.1832C9.41927 63.1248 13.7336 67.0067 18.7792 68.3733C23.303 69.6527 28.3224 68.8938 32.2963 66.3307C36.2804 63.8112 39.1868 59.5642 40.0993 54.8487C40.8848 51.0186 40.3047 46.9521 38.647 43.4434C40.8908 41.1396 43.1286 38.8274 45.3845 36.5339C45.739 41.5522 45.4691 46.5954 45.5496 51.6262C44.4801 51.622 43.4146 51.6262 42.3451 51.6303C42.2565 56.3749 40.4638 61.0614 37.3237 64.5473C33.531 68.8564 27.8007 71.2619 22.1529 70.8866C16.7892 70.6087 11.6288 67.8362 8.31148 63.5084C5.68498 60.1615 4.24082 55.9125 4.14816 51.6262C3.09475 51.6262 2.04737 51.622 0.997986 51.62C1.01209 47.3772 0.983887 43.1303 1.01209 38.8875C1.11682 31.7914 4.72825 24.913 10.3599 20.8278C13.1072 25.3899 18.2152 28.3657 23.4662 28.2329C28.5862 28.2288 33.5129 25.28 36.1978 20.8278V20.8216Z" fill="white"/>
<path d="M32.2964 36.2229C33.8695 34.6199 35.4265 33.0045 36.9995 31.4057C37.2291 33.102 37.4427 34.8003 37.6763 36.5007C39.332 36.733 40.9856 36.957 42.6413 37.1954C41.0742 38.8088 39.5032 40.4179 37.9341 42.0292C36.6793 41.8591 35.4224 41.6891 34.1716 41.4983C30.8724 44.8452 27.5893 48.2088 24.3364 51.6013C23.8651 51.5951 23.3958 51.6013 22.9244 51.6075C22.9406 51.1347 22.9607 50.6661 22.9788 50.1974C26.268 46.8692 29.5108 43.487 32.7919 40.1463C32.6368 38.8357 32.4475 37.5293 32.2944 36.2229H32.2964Z" fill="white"/>
<path d="M16.3602 39.1571C20.7229 36.4779 26.5258 36.648 30.7556 39.5387C30.3084 40.0053 29.8613 40.4698 29.4161 40.9364C26.2015 38.9726 22.1026 38.5973 18.6544 40.1401C13.8022 42.1661 10.6923 47.7754 11.5604 53.0985C12.2755 58.7141 17.2767 63.3218 22.7955 63.4338C27.8592 63.722 32.802 60.2196 34.4073 55.2904C35.5775 51.9186 35.1344 48.0615 33.3539 44.9966C33.803 44.528 34.2582 44.0656 34.7134 43.6073C36.6088 46.5851 37.356 50.3073 36.7276 53.8098C36.067 57.7187 33.6822 61.2605 30.3829 63.3176C27.6316 65.0658 24.2618 65.7335 21.0674 65.2006C17.3592 64.6096 13.9513 62.3472 11.8726 59.1433C9.9672 56.2692 9.1857 52.6444 9.70335 49.2104C10.2814 45.0506 12.8193 41.2516 16.3602 39.153V39.1571Z" fill="white"/>
<path d="M16.9403 45.6934C19.2989 42.7985 23.5428 41.94 26.846 43.5347C26.3787 44.0386 25.9054 44.5363 25.422 45.0257C23.9154 44.5632 22.2618 44.5156 20.8035 45.1688C18.4006 46.1517 16.7228 48.7231 16.7832 51.3815C16.7731 54.0255 18.4852 56.545 20.882 57.4947C23.1762 58.4652 25.9819 57.8804 27.7423 56.0909C29.5632 54.3386 30.1714 51.5039 29.3799 49.0942C29.8532 48.5862 30.3366 48.0968 30.8341 47.6178C31.6438 49.5567 31.8734 51.7838 31.247 53.8181C30.391 56.8001 27.8249 59.1806 24.8439 59.7405C21.9979 60.3357 18.8981 59.2512 16.9967 57.0012C14.2393 53.9322 14.2151 48.7853 16.9423 45.6934H16.9403Z" fill="white"/>
</g>
<defs>
<clipPath id="clip0_2309_4837">
<rect width="46" height="71" fill="white"/>
</clipPath>
</defs>
</svg>
